<?xml version="1.0" standalone="no"?>
<!DOCTYPE svg PUBLIC "-//W3C//DTD SVG 20010904//EN"
 "http://www.w3.org/TR/2001/REC-SVG-20010904/DTD/svg10.dtd">
<svg version="1.0" xmlns="http://www.w3.org/2000/svg"
 width="400.000000pt" height="400.000000pt" viewBox="0 0 400.000000 400.000000"
 preserveAspectRatio="xMidYMid meet">
<metadata>
Created by potrace 1.11, written by Peter Selinger 2001-2013
</metadata>
<g transform="translate(0.000000,400.000000) scale(0.100000,-0.100000)"
fill="#000000" stroke="none">
<path d="M3710 3282 c-47 -6 -182 -43 -263 -71 -241 -83 -559 -261 -828 -463
-164 -122 -236 -185 -380 -328 -276 -274 -356 -429 -388 -750 -13 -134 -3
-290 34 -510 18 -106 106 -413 124 -432 3 -4 7 7 8 25 3 51 13 140 18 167 3
13 7 42 11 65 9 61 61 261 91 345 93 267 228 514 404 735 68 86 175 205 195
218 7 4 -11 -34 -40 -85 -209 -369 -410 -863 -451 -1105 -8 -51 -6 -52 109
-28 149 31 297 93 424 177 39 27 72 46 72 43 0 -3 8 3 18 13 55 52 98 87 105
84 5 -1 6 2 3 7 -3 5 2 15 11 22 14 12 16 12 8 0 -5 -10 -4 -12 3 -7 7 4 12
12 12 17 0 5 15 26 33 46 98 110 106 120 100 127 -4 3 -1 6 5 6 7 0 12 6 12
14 0 8 3 16 8 18 11 5 72 103 72 116 0 7 5 12 10 12 6 0 10 5 10 11 0 5 18 48
40 94 22 46 40 91 40 99 0 9 4 16 8 16 5 0 9 6 9 13 0 6 10 48 21 92 27 102
31 123 37 220 4 44 8 94 9 110 2 17 7 59 11 95 3 35 9 69 13 74 3 6 7 17 8 26
2 21 23 98 36 129 6 14 12 32 14 40 6 32 81 172 128 241 28 41 95 119 149 173
l98 98 -73 -3 c-40 -1 -84 -4 -98 -6z"/>
<path d="M175 3152 c123 -124 221 -301 241 -432 3 -19 7 -42 9 -50 5 -17 12
-89 20 -205 3 -44 7 -89 9 -100 17 -79 30 -124 53 -183 113 -282 305 -490 551
-595 56 -24 200 -67 225 -67 27 0 -49 290 -118 455 -31 74 -162 356 -192 415
l-33 65 46 -50 c267 -290 458 -738 464 -1090 l0 -50 20 44 c68 149 124 430
123 616 -1 271 -68 411 -313 655 -346 346 -811 613 -1105 635 l-67 5 67 -68z"/>
</g>
</svg>
